<svg width="52" height="52" viewBox="0 0 52 52" fill="none" xmlns="http://www.w3.org/2000/svg">
<rect x="42.8909" y="3" width="4" height="55" rx="2" transform="rotate(45 42.8909 3)" fill="white"/>
<path fill-rule="evenodd" clip-rule="evenodd" d="M39.4 11.4909C25.7993 4.15857 6.84801 8.87999 0.137941 25.6552C0.0493971 25.8765 0.0493974 26.1235 0.137941 26.3448C2.53178 32.3294 6.48358 36.7799 11.1946 39.6963L14.1229 36.7679C10.0475 34.4661 6.56522 30.8768 4.33978 26C10.2823 12.9775 25.1865 9.13546 36.4169 14.474L39.4 11.4909ZM18.0241 38.5236C28.883 42.2732 42.1393 38.0987 47.6602 26C45.8277 21.9841 43.1428 18.8412 39.9763 16.5714L42.8467 13.701C46.6532 16.5725 49.8229 20.5572 51.8621 25.6552C51.9506 25.8765 51.9506 26.1235 51.8621 26.3448C45.5264 42.1839 28.2776 47.277 14.9238 41.6239L18.0241 38.5236Z" fill="white"/>
<path fill-rule="evenodd" clip-rule="evenodd" d="M30.3642 20.5267C29.1675 19.5712 27.6504 19 26 19C22.134 19 19 22.134 19 26C19 27.6504 19.5712 29.1675 20.5267 30.3642L30.3642 20.5267ZM23.8758 32.6719C24.5458 32.885 25.2595 33 26 33C29.866 33 33 29.866 33 26C33 25.2595 32.885 24.5458 32.6719 23.8758L23.8758 32.6719Z" fill="white"/>
</svg>
