<svg width="114" height="114" viewBox="0 0 114 114" fill="none" xmlns="http://www.w3.org/2000/svg">
<path d="M53.7219 41.5842C41.1182 41.7444 0 43.333 0 57.0012C0 71.6944 47.4814 72.438 57.0007 72.438C66.519 72.438 114 71.6944 114 57.0012C114 50.4855 105.433 47.5018 98.9899 45.8248C91.9621 43.9952 82.4695 42.6686 71.9886 42.0208C72.1603 44.8033 72.2811 47.6631 72.355 50.5706C91.5069 51.8188 101.636 55.049 104.751 57.0123C100.533 59.7374 84.2714 63.9206 57.0007 63.9206C29.681 63.9206 13.4105 59.7219 9.22635 56.998C13.1983 54.3913 28.0825 50.4292 53.8302 50.0997C56.1826 50.071 58.0653 48.1397 58.0343 45.7872C58.0045 43.4546 56.1041 41.5831 53.7772 41.5831C53.7583 41.5831 53.7406 41.5831 53.7219 41.5842Z" fill="#DADADA"/>
<path d="M41.5628 57.0012C41.5628 66.5187 42.3068 114 57.0008 114C63.5131 114 66.4971 105.44 68.1742 98.9991C70.005 91.9676 71.3317 82.4664 71.9816 71.9774C68.825 72.1668 65.9061 72.2804 63.4314 72.3472C62.1832 91.5042 58.9519 101.637 56.9886 104.753C54.2636 100.533 50.0793 84.2714 50.0793 57.0012C50.0793 29.7023 54.2725 13.4351 56.9964 9.23643C59.6119 13.3101 63.6878 28.84 63.9111 54.8566C63.931 57.1969 65.8335 59.0796 68.1692 59.0796H68.2071C70.558 59.0585 72.4488 57.1349 72.4288 54.7847C72.309 40.8721 71.0602 27.8363 68.9109 18.0803C66.1936 5.7453 62.4088 0 57.0008 0C42.3068 0 41.5628 47.4819 41.5628 57.0012Z" fill="#DADADA"/>
</svg>
